# xmcd
#
# Track frame offsets: 
#        150
#        9915
#        23535
#        37057
#        54944
#        73349
#        89721
#        104841
#        119983
#        134120
#        149315
#        165530
#        184377
#        204604
#        217151
#        229961
#        242441
#        262008
#        279213
#        294535
#        308597
#        323072
#        338987
#
# Disc length: 4725 seconds
#
# Revision: 0
# Processed by: cddbd v1.5.2PL0 Copyright (c) Steve Scherf et al.
# Submitted via: ExactAudioCopy v0.99pb5
#
DISCID=6f127317
DTITLE=Henry Mancini  - Petter Gunn and More Music From Peter Gunn  FLAC
DYEAR=1900
DGENRE=
TTITLE0=Peter Gunn 1_Peter Gun
TTITLE1=Peter Gunn 2_Sorta Blue
TTITLE2=Peter Gunn 3_The Brothers Go to Mother's
TTITLE3=Peter Gunn 4_Dreamsville
TTITLE4=Peter Gunn 5_Session at Pete's Pad
TTITLE5=Peter Gunn 6_Soft Sounds
TTITLE6=Peter Gunn 7_Fallout
TTITLE7=Peter Gunn 8_The Floater
TTITLE8=Peter Gunn 9_Slow and Easy
TTITLE9=Peter Gunn 10_A Profound Gass
TTITLE10=Peter Gunn 11_Brief and Breezy
TTITLE11=Peter Gunn 12_Not from Dixie
TTITLE12=More Peter Gunn 1_Walkin' Bass
TTITLE13=More Peter Gunn 2_Timothy
TTITLE14=More Peter Gunn 3_Joanna
TTITLE15=More Peter Gunn 4_My Manne Shelly
TTITLE16=More Peter Gunn 5_Goofin' at the Coffee House
TTITLE17=More Peter Gunn 7_Blue Steel
TTITLE18=More Peter Gunn 8_The Little Man Theme
TTITLE19=More Peter Gunn 9_Spook
TTITLE20=More Peter Gunn 10_A Quiet Gass
TTITLE21=More Peter Gunn 11_Lightly
TTITLE22=More Peter Gunn 12_Blues for Mother's
EXTD=
EXTT0=
EXTT1=
EXTT2=
EXTT3=
EXTT4=
EXTT5=
EXTT6=
EXTT7=
EXTT8=
EXTT9=
EXTT10=
EXTT11=
EXTT12=
EXTT13=
EXTT14=
EXTT15=
EXTT16=
EXTT17=
EXTT18=
EXTT19=
EXTT20=
EXTT21=
EXTT22=
PLAYORDER=
